<svg width="24" height="24" viewBox="0 0 24 24" fill="none" xmlns="http://www.w3.org/2000/svg">
<g clip-path="url(#clip0_1_27)">
<path d="M11.1093 0.032814C9.38899 0.201565 8.06712 0.571877 6.66087 1.27031C3.53431 2.82188 1.26087 5.62969 0.379619 9.0375C-0.0563189 10.7156 -0.107881 12.6516 0.234306 14.3484C0.974931 18.0047 3.36087 21.1125 6.67962 22.7391C7.59837 23.1891 8.15149 23.3906 9.06556 23.625C10.1343 23.8969 10.8093 23.9766 12.0234 23.9766C13.4718 23.9719 14.4468 23.8219 15.7499 23.3953C18.8296 22.3781 21.3187 20.2031 22.7624 17.2734C23.3577 16.0688 23.714 14.8922 23.9156 13.4766C24.0093 12.825 23.9952 11.1188 23.8874 10.3828C23.789 9.65625 23.5124 8.54063 23.2734 7.89375C23.0296 7.22813 22.4202 6.01406 22.0452 5.4375C20.9062 3.70781 19.2984 2.26406 17.4749 1.33125C16.0921 0.628126 14.7562 0.229689 13.2234 0.0703144C12.6515 0.00937653 11.5406 -0.00937271 11.1093 0.032814ZM12.9374 1.64531C16.7859 1.99219 20.1421 4.47656 21.6234 8.0625C22.2234 9.50625 22.4999 11.3297 22.364 12.8672C22.0312 16.5469 19.8468 19.7344 16.5702 21.3281C15.5531 21.825 14.6062 22.1203 13.4999 22.2938C12.764 22.4109 11.2406 22.4109 10.5234 22.2984C8.27337 21.9422 6.37024 21.0047 4.77649 19.4672C1.52806 16.3266 0.679619 11.4938 2.66712 7.42969C3.22024 6.29531 3.88118 5.39531 4.80462 4.50938C6.97493 2.41406 9.94681 1.36875 12.9374 1.64531Z" fill="#003148"/>
<path d="M8.39057 8.44687C8.1937 8.58281 8.06245 8.76094 8.02026 8.94844C8.0062 9.02812 8.00151 9.6375 8.01557 10.3031C8.03901 11.4797 8.0437 11.5125 8.15151 11.6672C8.27807 11.8453 8.57807 11.9953 8.80307 12C8.99526 12 9.29057 11.8547 9.41713 11.6906C9.59057 11.4703 9.61401 11.25 9.59995 10.0406C9.58588 8.92031 9.5812 8.87812 9.47338 8.70469C9.25776 8.35781 8.71401 8.22656 8.39057 8.44687Z" fill="#003148"/>
<path d="M14.9062 8.3765C14.7328 8.44213 14.5594 8.60619 14.4797 8.78432C14.4 8.95307 14.3906 9.10775 14.3906 10.1484C14.3906 11.4515 14.4141 11.5734 14.7141 11.8265C15.075 12.1312 15.675 12.0046 15.8906 11.5734C15.975 11.4093 15.9844 11.2968 15.9844 10.1343C15.9844 8.9015 15.9844 8.86869 15.8766 8.714C15.7078 8.46088 15.4922 8.34369 15.2156 8.34838C15.0844 8.34838 14.9438 8.36244 14.9062 8.3765Z" fill="#003148"/>
<path d="M7.49062 15.1875C7.14375 15.2907 6.9375 15.5813 6.9375 15.961C6.9375 16.2422 7.01719 16.3922 7.31719 16.6594C7.94531 17.2219 9.04687 17.8266 9.92344 18.0844C10.7156 18.3235 11.2922 18.3891 12.2578 18.361C13.3922 18.3235 14.1 18.1594 15.0797 17.6954C15.8625 17.325 16.7531 16.6875 16.8891 16.3922C17.1141 15.9282 16.8328 15.3657 16.3266 15.2579C16.0547 15.2016 15.8672 15.2813 15.3891 15.6375C14.6437 16.2 13.8281 16.561 12.9328 16.7157C12.2812 16.8282 11.2453 16.786 10.6219 16.6219C9.78281 16.3969 9.00469 15.9985 8.40469 15.4875C8.03437 15.1688 7.8 15.0938 7.49062 15.1875Z" fill="#003148"/>
</g>
<defs>
<clipPath id="clip0_1_27">
<rect width="24" height="24" fill="white"/>
</clipPath>
</defs>
</svg>
