<svg width="15" height="15" viewBox="0 0 15 15" fill="none" xmlns="http://www.w3.org/2000/svg">
<path d="M5.29701 0.549996C1.84076 1.01562 -0.321737 4.49375 0.800138 7.77812C1.26889 9.14375 2.25951 10.2719 3.57826 10.9312C4.81264 11.5469 6.30326 11.6656 7.64076 11.2469C8.20014 11.0719 9.00951 10.6437 9.42201 10.3L9.51576 10.2219L11.3908 12.0937C13.4251 14.1219 13.3251 14.0406 13.6158 13.9844C13.7689 13.9562 13.9564 13.7687 13.9845 13.6156C14.0408 13.325 14.122 13.425 12.0939 11.3906L10.222 9.51562L10.3001 9.42187C10.4845 9.2 10.7908 8.70625 10.9501 8.375C11.9814 6.22812 11.5251 3.70312 9.80639 2.04375C8.60326 0.881246 6.93139 0.328122 5.29701 0.549996ZM6.83764 1.57812C7.93764 1.79375 8.91889 2.40937 9.59389 3.30625C9.99389 3.8375 10.2626 4.43437 10.4126 5.11875C10.5033 5.52812 10.5095 6.41562 10.4283 6.8125C10.1908 7.96562 9.59701 8.91562 8.69389 9.59375C8.16264 9.99375 7.56576 10.2625 6.88139 10.4125C6.44389 10.5094 5.55639 10.5094 5.11889 10.4125C3.73139 10.1094 2.59389 9.2375 1.98764 8.01875C1.68451 7.40937 1.54389 6.87187 1.51264 6.20312C1.42201 4.3 2.53451 2.56562 4.31889 1.83125C4.62201 1.70625 5.09389 1.57812 5.42201 1.53437C5.72826 1.49062 6.52826 1.51562 6.83764 1.57812Z" fill="white"/>
</svg>
